<?xml version="1.0" standalone="no"?>
<!DOCTYPE svg PUBLIC "-//W3C//DTD SVG 20010904//EN"
 "http://www.w3.org/TR/2001/REC-SVG-20010904/DTD/svg10.dtd">
<svg version="1.0" xmlns="http://www.w3.org/2000/svg"
 width="500.000000pt" height="500.000000pt" viewBox="0 0 500.000000 500.000000"
 preserveAspectRatio="xMidYMid meet">

<g transform="translate(0.000000,500.000000) scale(0.100000,-0.100000)"
fill="#000000" stroke="none">
<path d="M2557 2664 c-4 -4 -7 -16 -7 -26 0 -15 6 -19 28 -16 19 2 27 9 27 23
0 20 -33 33 -48 19z"/>
<path d="M3040 2615 c0 -18 -5 -25 -20 -25 -26 0 -26 -30 0 -37 16 -4 20 -15
22 -72 l3 -66 43 -3 c34 -3 42 0 42 13 0 9 -9 19 -20 22 -17 4 -20 14 -20 54
0 42 3 49 20 49 13 0 20 7 20 20 0 13 -7 20 -20 20 -15 0 -20 7 -20 25 0 20
-5 25 -25 25 -20 0 -25 -5 -25 -25z"/>
<path d="M2250 2500 c0 -89 0 -90 25 -90 23 0 24 4 27 63 3 56 5 62 26 65 21
3 22 0 22 -62 0 -63 1 -66 25 -66 23 0 24 4 27 63 3 55 5 62 25 65 20 3 22 -1
25 -60 3 -59 5 -63 28 -66 l25 -3 -3 78 c-2 43 -9 84 -14 91 -13 15 -43 16
-68 2 -14 -8 -25 -7 -40 2 -15 10 -27 10 -50 1 -17 -7 -32 -7 -36 -2 -3 5 -14
9 -25 9 -17 0 -19 -8 -19 -90z"/>
<path d="M2540 2570 c0 -11 5 -20 10 -20 6 0 10 -30 10 -70 0 -68 1 -70 25
-70 25 0 25 1 25 78 0 83 -9 102 -47 102 -16 0 -23 -6 -23 -20z"/>
<path d="M2660 2500 c0 -89 0 -90 25 -90 24 0 25 3 25 60 0 49 3 61 20 70 25
13 28 6 32 -70 3 -51 5 -55 30 -58 l27 -3 -6 78 c-3 43 -10 84 -16 91 -11 15
-41 16 -67 2 -13 -7 -21 -7 -25 0 -3 5 -15 10 -26 10 -17 0 -19 -8 -19 -90z"/>
<path d="M2872 2578 c-11 -14 -15 -33 -13 -59 0 -8 17 -24 38 -35 44 -23 41
-39 -7 -39 -24 0 -35 -5 -35 -14 0 -31 101 -35 125 -5 23 26 7 68 -32 89 -49
26 -51 48 -4 40 36 -7 59 10 35 26 -21 13 -95 11 -107 -3z"/>
<path d="M3179 2583 c-10 -2 -15 -11 -12 -21 3 -14 13 -17 44 -14 31 3 39 1
39 -12 0 -10 -9 -16 -23 -16 -39 0 -67 -27 -67 -66 0 -28 5 -36 25 -44 15 -6
34 -6 48 -1 13 5 35 7 50 4 30 -6 30 -7 27 77 -2 77 -19 100 -73 99 -23 -1
-49 -3 -58 -6z m69 -115 c-4 -29 -38 -38 -38 -10 0 22 8 32 27 32 9 0 13 -8
11 -22z"/>
<path d="M3366 2571 c-25 -28 -30 -81 -12 -125 15 -36 18 -38 56 -34 36 3 40
1 38 -17 -2 -16 -12 -21 -43 -23 -77 -6 -69 -42 10 -42 71 0 82 20 86 155 l4
100 -61 3 c-49 2 -64 -1 -78 -17z m82 -70 c-3 -38 -6 -46 -23 -46 -16 0 -21 8
-23 38 -4 42 12 69 34 60 11 -4 14 -18 12 -52z"/>
<path d="M3548 2583 c-2 -5 -2 -45 0 -90 l4 -83 28 0 c29 0 29 1 32 62 3 54 6
63 23 67 21 4 35 18 35 39 0 17 -35 15 -53 -3 -13 -13 -16 -13 -27 0 -13 16
-37 20 -42 8z"/>
<path d="M3706 2571 c-23 -26 -30 -89 -14 -121 51 -95 177 -27 148 79 -6 22
-19 45 -30 51 -31 17 -85 12 -104 -9z m84 -78 c0 -46 -20 -67 -43 -44 -17 17
-15 90 3 101 23 14 40 -9 40 -57z"/>
<path d="M3880 2531 c0 -81 15 -121 47 -121 13 0 33 5 43 10 14 8 25 7 40 -2
30 -19 36 -3 32 91 -3 78 -4 81 -28 81 -23 0 -24 -3 -24 -59 0 -39 -5 -63 -15
-71 -23 -19 -35 -2 -35 50 0 64 -7 80 -36 80 -23 0 -24 -3 -24 -59z"/>
<path d="M4090 2457 c0 -127 0 -128 23 -125 18 2 23 10 25 41 3 35 5 37 36 37
19 0 40 8 49 18 24 27 31 84 13 125 l-15 37 -65 -2 -66 -2 0 -129z m98 50 c4
-42 -11 -69 -34 -60 -15 5 -20 83 -7 97 18 17 38 -1 41 -37z"/>
</g>
</svg>
